<svg id="Camada_1" data-name="Camada 1" xmlns="http://www.w3.org/2000/svg" viewBox="0 0 308.01 308.01"><title>campus_reporter</title><rect x="4" y="4" width="300" height="300" rx="12.01" ry="12.01" style="fill:#5e861c;stroke:#fff;stroke-miterlimit:10;stroke-width:8.00841244427411px"/><path d="M3777.62,433.66l-0.05-.15a0.18,0.18,0,0,0,0-.07,1.86,1.86,0,0,0-.33-0.46l-0.1-.08a1.92,1.92,0,0,0-.43-0.29l-0.17-.07a1.84,1.84,0,0,0-.64-0.13h-76.6l-0.49-.61,24-7.55,0.29-.09,0.43-.13,23.1-7.25,4.9-1.54,7.25-2.28,17.64-5.53a1.86,1.86,0,0,0,1.22-2.34h0l-4.46-14.22s0-.06-0.05-0.09a1.83,1.83,0,0,0-.25-0.46s-0.06-.09-0.1-0.13l0-.05a1.8,1.8,0,0,0-.45-0.34l-0.14-.06a1.91,1.91,0,0,0-.48-0.14l-0.19,0a1.81,1.81,0,0,0-.65.07L3718.8,406l-4.82,1.51-8.27,2.6-23.59,7.41h-6.83a1.86,1.86,0,0,0-1.86,1.86v76.38a5.59,5.59,0,0,0,5.59,5.59h93.14a5.59,5.59,0,0,0,5.59-5.59V434.28s0-.07,0-0.1A1.86,1.86,0,0,0,3777.62,433.66Zm-5.46,2.48-8.38,11.18h-10.25l8.38-11.18h10.25Zm-14.9,0-8.38,11.18h-10.25l8.38-11.18h10.25Zm-14.9,0L3734,447.32h-10.25l8.38-11.18h10.25Zm-14.9,0-8.38,11.18h-10.25l8.38-11.18h10.25Zm-14.9,0-8.38,11.18h-0.93V438a1.86,1.86,0,0,0-.41-1.16l-0.54-.67Zm58.77-38.81,2.24,7.11-5.34,1.67Zm-9.68-.87,6.8-2.13-4.66,13.17-6.2,1.95-3.57,1.12,4.66-13.17Zm-16,5,8.57-2.69L3749.55,412l-9.77,3.07,4.66-13.18Zm-5.64,1.77-4.66,13.17-9.77,3.07,4.66-13.17Zm-24,7.54,9.77-3.07-4.66,13.18-9.77,3.07Zm-4.43,1.38-4.66,13.17-6,1.89-3.75,1.18,4.66-13.17Zm-14.24,4.47-3.26,9.25-5.26-6.58Zm-20.18,4.59h8.42l8.61,10.77,2.75,3.43,1.3,1.64,0.23,0.28,1,1.29v8.67h-22.34V421.24ZM3774,495.75a1.86,1.86,0,0,1-1.86,1.86H3679a1.86,1.86,0,0,1-1.86-1.86V451H3774v44.71Zm0-48.44h-5.59l5.59-7.45v7.45Z" transform="translate(-3570.21 -329.22)" style="fill:#fff"/><rect x="110.67" y="110.64" width="3.73" height="3.73" style="fill:#fff"/><rect x="110.67" y="95.74" width="3.73" height="3.73" style="fill:#fff"/><rect x="121.84" y="110.64" width="3.73" height="3.73" style="fill:#fff"/><rect x="114.39" y="133" width="81.97" height="3.73" style="fill:#fff"/><polygon points="114.39 147.9 114.39 151.63 138.61 151.63 138.61 162.8 142.34 162.8 142.34 151.63 168.42 151.63 168.42 162.8 172.14 162.8 172.14 151.63 196.36 151.63 196.36 147.9 114.39 147.9" style="fill:#fff"/><text transform="translate(81.61 227.42)" style="font-size:36px;fill:#fff;font-family:UnB Pro;font-weight:700">Campus <tspan x="-5.74" y="43.2">R</tspan><tspan x="19.39" y="43.2">eporter</tspan></text></svg>