<svg id="Camada_1" data-name="Camada 1" xmlns="http://www.w3.org/2000/svg" viewBox="0 0 308.01 308.01"><title>jornal_campus</title><rect x="4" y="4" width="300" height="300" rx="12" ry="12" style="fill:#de9616;stroke:#fff;stroke-miterlimit:10;stroke-width:8.00841244427411px"/><path d="M4052.91,421.45h-6.55v-4.29h4.37a2.18,2.18,0,1,0,0-4.37h-4.37v-4.44h6.55a2.18,2.18,0,0,0,0-4.37h-8.73a2.18,2.18,0,0,0-2.18,2.18v17.46a2.18,2.18,0,0,0,2.18,2.18h8.73A2.18,2.18,0,0,0,4052.91,421.45Z" transform="translate(-3900.21 -329.22)" style="fill:#fff"/><path d="M4035.45,404a2.18,2.18,0,0,0-2.18,2.18v8.15l-4.37-7.56v-0.59a2.18,2.18,0,1,0-4.37,0v17.46a2.18,2.18,0,1,0,4.37,0v-8.15l4.37,7.56v0.59a2.18,2.18,0,1,0,4.37,0V406.17A2.18,2.18,0,0,0,4035.45,404Z" transform="translate(-3900.21 -329.22)" style="fill:#fff"/><path d="M4081.06,404.08a2.18,2.18,0,0,0-2.73,1.43l-3.52,11.27-2.34-6.51,1.08-3.46a2.18,2.18,0,1,0-4.17-1.3l-3.37,10.8-3.37-10.8a2.18,2.18,0,1,0-4.17,1.3l5.46,17.46a2.18,2.18,0,0,0,4.17,0l2.22-7.11,2.59,7.2a2.18,2.18,0,0,0,2.05,1.44h0a2.18,2.18,0,0,0,2-1.53l5.46-17.46A2.18,2.18,0,0,0,4081.06,404.08Z" transform="translate(-3900.21 -329.22)" style="fill:#fff"/><path d="M4092.42,412.72A2.18,2.18,0,1,1,4094,409a2.18,2.18,0,1,0,3.09-3.09,6.55,6.55,0,1,0-4.62,11.18,2.18,2.18,0,1,1-1.54,3.73,2.18,2.18,0,1,0-3.09,3.09A6.55,6.55,0,1,0,4092.42,412.72Z" transform="translate(-3900.21 -329.22)" style="fill:#fff"/><path d="M4084.12,452a2.18,2.18,0,1,1,1.54-3.73,2.18,2.18,0,0,0,3.08-3.09,6.52,6.52,0,0,0-2.43-1.54v-2.56a2.18,2.18,0,1,0-4.37,0v2.55a6.55,6.55,0,0,0,2.17,12.73,2.18,2.18,0,1,1-1.54,3.73,2.18,2.18,0,1,0-3.09,3.09,6.53,6.53,0,0,0,2.45,1.55v2.55a2.18,2.18,0,1,0,4.37,0v-2.56A6.55,6.55,0,0,0,4084.12,452Z" transform="translate(-3900.21 -329.22)" style="fill:#fff"/><path d="M4043.74,473.84h-14a2.18,2.18,0,0,0,0,4.37h14A2.18,2.18,0,1,0,4043.74,473.84Z" transform="translate(-3900.21 -329.22)" style="fill:#fff"/><path d="M4043.74,482.57H4025.4a2.18,2.18,0,1,0,0,4.37h18.34A2.18,2.18,0,1,0,4043.74,482.57Z" transform="translate(-3900.21 -329.22)" style="fill:#fff"/><path d="M4043.74,438.91H4025.4a2.18,2.18,0,0,0-2.18,2.18v26.19a2.18,2.18,0,0,0,2.18,2.18h18.34a2.18,2.18,0,0,0,2.18-2.18V441.09A2.18,2.18,0,0,0,4043.74,438.91Zm-2.18,26.19h-14V443.28h14v21.83Z" transform="translate(-3900.21 -329.22)" style="fill:#fff"/><path d="M4070.81,438.91h-18.34a2.18,2.18,0,1,0,0,4.37h18.34A2.18,2.18,0,1,0,4070.81,438.91Z" transform="translate(-3900.21 -329.22)" style="fill:#fff"/><path d="M4070.81,447.64h-18.34a2.18,2.18,0,1,0,0,4.37h18.34A2.18,2.18,0,1,0,4070.81,447.64Z" transform="translate(-3900.21 -329.22)" style="fill:#fff"/><path d="M4070.81,456.38h-14a2.18,2.18,0,1,0,0,4.37h14A2.18,2.18,0,1,0,4070.81,456.38Z" transform="translate(-3900.21 -329.22)" style="fill:#fff"/><path d="M4070.81,465.11h-18.34a2.18,2.18,0,1,0,0,4.37h18.34A2.18,2.18,0,1,0,4070.81,465.11Z" transform="translate(-3900.21 -329.22)" style="fill:#fff"/><path d="M4070.81,473.84h-18.34a2.18,2.18,0,1,0,0,4.37h18.34A2.18,2.18,0,1,0,4070.81,473.84Z" transform="translate(-3900.21 -329.22)" style="fill:#fff"/><path d="M4064.26,482.57h-11.79a2.18,2.18,0,1,0,0,4.37h11.79A2.18,2.18,0,1,0,4064.26,482.57Z" transform="translate(-3900.21 -329.22)" style="fill:#fff"/><path d="M4097.88,438.91h-5.24a2.18,2.18,0,0,0,0,4.37h5.24A2.18,2.18,0,0,0,4097.88,438.91Z" transform="translate(-3900.21 -329.22)" style="fill:#fff"/><path d="M4097.88,447.64h-3.06a2.18,2.18,0,1,0,0,4.37h3.06A2.18,2.18,0,0,0,4097.88,447.64Z" transform="translate(-3900.21 -329.22)" style="fill:#fff"/><path d="M4097.88,456.38h-3.06a2.18,2.18,0,1,0,0,4.37h3.06A2.18,2.18,0,0,0,4097.88,456.38Z" transform="translate(-3900.21 -329.22)" style="fill:#fff"/><path d="M4097.88,465.11h-5.24a2.18,2.18,0,0,0,0,4.37h5.24A2.18,2.18,0,0,0,4097.88,465.11Z" transform="translate(-3900.21 -329.22)" style="fill:#fff"/><path d="M4097.88,473.84h-18.34a2.18,2.18,0,0,0,0,4.37h18.34A2.18,2.18,0,0,0,4097.88,473.84Z" transform="translate(-3900.21 -329.22)" style="fill:#fff"/><path d="M4097.88,482.57h-18.34a2.18,2.18,0,0,0,0,4.37h18.34A2.18,2.18,0,0,0,4097.88,482.57Z" transform="translate(-3900.21 -329.22)" style="fill:#fff"/><path d="M4106.61,395.25h-89.94a2.18,2.18,0,0,0-2.18,2.18v7.69l-2.23,2.23-2.83-2.83a2.18,2.18,0,0,0-3.08,0l-2.82,2.82-2.78-2.78a2.18,2.18,0,0,0-3.73,1.54v78.63a10.93,10.93,0,0,0,10.91,10.91h89.94a10.93,10.93,0,0,0,10.91-10.91V397.44A2.18,2.18,0,0,0,4106.61,395.25ZM4014.49,416l-2.23,2.23-2.78-2.78a2.18,2.18,0,0,0-3.73,1.54V476a2.18,2.18,0,0,0,4.37,0V422.31l0.59,0.59a2.18,2.18,0,0,0,3.09,0l0.69-.69v62.54a6.55,6.55,0,0,1-13.1,0V411.39L4002,412a2.18,2.18,0,0,0,3.09,0l2.82-2.82,2.82,2.82a2.18,2.18,0,0,0,3.09,0l0.69-.69V416Zm89.94,68.71a6.56,6.56,0,0,1-6.55,6.55h-81.21a10.86,10.86,0,0,0,2.19-6.55V434.55h85.57v50.21Zm0-54.57h-85.57V399.62h85.57v30.56Z" transform="translate(-3900.21 -329.22)" style="fill:#fff"/><path d="M4007.94,482.52a2.18,2.18,0,1,0,2.18,2.19A2.19,2.19,0,0,0,4007.94,482.52Z" transform="translate(-3900.21 -329.22)" style="fill:#fff"/><text transform="translate(97.74 227.42)" style="font-size:36px;fill:#fff;font-family:UnB Pro;font-weight:700">Jornal<tspan x="-16.13" y="43.2">Campus</tspan></text></svg>