<svg id="Page_1" data-name="Page 1" xmlns="http://www.w3.org/2000/svg" viewBox="0 0 51.02 46.98"><title>logo_unb2</title><g id="Layer_1" data-name="Layer 1"><path d="M643.91,397.87v-8.82h3.24v8.58c0,2.23,1,3.26,2.86,3.26s2.8-1.07,2.8-3.36v-8.48h3.26v8.68c0,3.91-2.33,5.7-6.12,5.7-3.63,0-6-1.64-6-5.56h0Z" transform="translate(-636.83 -356.46)" style="fill:#fff"/><path d="M665.69,403.23v-6.37c0-1.52-.43-2.29-1.68-2.29s-2,1.12-2,2.9v5.76H658.8v-8.35c0-1.11,0-1.91-.06-2.52h3c0,0.39.14,1.62,0.16,2.23a3.37,3.37,0,0,1,3.47-2.43c2.74,0,3.51,1.84,3.51,3.87v7.2h-3.22Z" transform="translate(-636.83 -356.46)" style="fill:#fff"/><path d="M676.62,397.08h-1.81v3.79h1.91c1.5,0,2.51-.49,2.51-1.95s-1.18-1.85-2.62-1.85h0Zm-0.39-5.72h-1.42v3.3h1.44c1.54,0,2.21-.51,2.21-1.66s-0.71-1.64-2.23-1.64h0ZM677,403.23h-5.39V389.05h4.91c3.29,0,5.17,1.2,5.17,3.59a2.94,2.94,0,0,1-2.56,3.06c2.17,0.29,3.37,1.58,3.37,3.47,0,2.86-2.31,4.05-5.49,4.05h0Z" transform="translate(-636.83 -356.46)" style="fill:#fff"/><path d="M680,365.73a44.74,44.74,0,0,1-8.43,4.78,17.61,17.61,0,0,1-4.82,1.31A29.78,29.78,0,0,1,663,372V382h24.8V360.05L680,365.73h0Z" transform="translate(-636.83 -356.46)" style="fill:#fff"/><path d="M644.69,365.73a44.82,44.82,0,0,0,8.43,4.78,17.62,17.62,0,0,0,4.82,1.31,29.78,29.78,0,0,0,3.69.23V382h-24.8V360.05l7.87,5.68h0Z" transform="translate(-636.83 -356.46)" style="fill:#fff"/><path d="M663,356.46v14.17a28.56,28.56,0,0,0,3.52-.22,16.15,16.15,0,0,0,4.43-1.2,43.31,43.31,0,0,0,8.16-4.63h0l8.7-6.28v-1.85H663Z" transform="translate(-636.83 -356.46)" style="fill:#fff"/><path d="M661.63,356.46v14.17a28.56,28.56,0,0,1-3.52-.22h0a16.16,16.16,0,0,1-4.43-1.2,43.32,43.32,0,0,1-8.16-4.63h0l-8.7-6.28v-1.85h24.8Z" transform="translate(-636.83 -356.46)" style="fill:#fff"/></g></svg>