<svg id="Camada_1" data-name="Camada 1" xmlns="http://www.w3.org/2000/svg" viewBox="0 0 191.34 38.27"><title>logo_menu</title><path d="M108.63,31.95A67.12,67.12,0,0,1,96,39.11a26.42,26.42,0,0,1-7.23,2,44.68,44.68,0,0,1-5.54.34V56.3h37.2V23.43l-11.8,8.52h0Z" transform="translate(-43.9 -18.03)" style="fill:#fff"/><path d="M55.7,31.95a67.22,67.22,0,0,0,12.64,7.17,26.43,26.43,0,0,0,7.23,2,44.66,44.66,0,0,0,5.54.34V56.3H43.9V23.43l11.8,8.52h0Z" transform="translate(-43.9 -18.03)" style="fill:#fff"/><path d="M83.23,18V39.29A42.84,42.84,0,0,0,88.51,39a24.23,24.23,0,0,0,6.64-1.81,65,65,0,0,0,12.24-6.94h0l13-9.42V18H83.23Z" transform="translate(-43.9 -18.03)" style="fill:#fff"/><path d="M81.11,18V39.29A42.84,42.84,0,0,1,75.83,39h0a24.25,24.25,0,0,1-6.65-1.81,65,65,0,0,1-12.24-6.94h0l-13-9.42V18H81.11Z" transform="translate(-43.9 -18.03)" style="fill:#fff"/><text transform="translate(92.33 24.47)" style="font-size:18.75px;fill:#fff;font-family:UnB Pro;font-weight:700"><tspan style="letter-spacing:-1px">F</tspan><tspan x="10.22" y="0">A</tspan><tspan x="23.47" y="0">C / U</tspan><tspan x="69.17" y="0">N</tspan><tspan x="83.64" y="0">B</tspan></text></svg>